<svg width="39" height="38" viewBox="0 0 39 38" fill="none" xmlns="http://www.w3.org/2000/svg">
<path d="M21.7481 12.0003C21.3715 12.003 20.9976 12.0209 20.6027 12.1246C20.1725 12.2389 19.7642 12.4214 19.3941 12.6647C18.8744 12.3657 18.3709 12.1199 17.8884 12.0621C17.2892 11.9897 16.7328 12.0289 16.0861 12.0422C15.3193 12.0574 14.8192 12.4408 14.0076 12.7478C13.1967 13.0534 12.1524 13.3498 10.6786 13.3498H10V19.745L10.382 19.9317L11.6326 20.5344L16.0861 25.3927L16.1071 25.4133C16.6161 25.9064 17.3028 26.0286 17.9094 25.9947C18.5167 25.9615 19.0868 25.7874 19.5421 25.5177C20.5443 24.9256 23.2742 23.0672 23.2742 23.0672L23.338 23.0254L23.3807 22.9842C23.7037 22.6699 23.8659 22.2865 23.9745 21.8838L26.5822 20.5962L28.5331 19.953L29 19.8068V13.3498H28.3214C27.1808 13.3574 26.0497 13.1457 24.9924 12.7265C24.1808 12.4162 23.6881 12.0369 22.9132 12.0209C22.4993 12.0129 22.1234 11.9976 21.7474 12.0003H21.7481ZM21.7685 13.3292C22.0738 13.3265 22.4267 13.3425 22.8718 13.3498C22.9431 13.3524 23.5952 13.6249 24.5045 13.973C25.2733 14.2687 26.3414 14.5312 27.6429 14.6162V18.852L26.0733 19.3716H26.0312L25.9885 19.3915L23.9324 20.4095C23.8233 20.1011 23.65 19.8183 23.4235 19.5789L23.3807 19.5164L20.4968 16.0494L20.0727 15.5298L19.5421 15.9451L17.7187 17.3989C17.1067 17.8142 16.6106 17.6946 16.1071 17.4613C15.9612 17.3936 15.9694 17.373 15.8527 17.2952L18.949 14.7823L18.9911 14.7411C19.9105 13.8481 20.4758 13.5391 20.963 13.4122C21.2073 13.3471 21.4645 13.3318 21.7691 13.3292H21.7685ZM17.0409 13.3498C17.2673 13.3414 17.494 13.3483 17.7194 13.3704C17.8972 13.391 18.0988 13.5391 18.2711 13.5989C18.2019 13.6614 18.1517 13.6973 18.0797 13.7651L18.0377 13.8069L14.3266 16.8168L13.7539 17.274L14.2628 17.7929C14.2628 17.7929 14.7534 18.3125 15.5141 18.6653C16.2748 19.0181 17.4494 19.2181 18.5039 18.4992L18.5466 18.4573L19.861 17.3989L22.3636 20.4095L22.3846 20.4513L22.4056 20.4712C22.8535 20.9051 22.8433 21.5875 22.4056 22.0294C22.4002 22.034 22.4111 22.0446 22.4056 22.0493C22.4002 22.0526 22.3106 22.1044 22.2998 22.1124L21.4088 20.9284L20.3061 21.7177L21.1761 22.8592C20.8232 23.0931 20.6644 23.2154 20.2851 23.4619L19.3738 22.2573L18.2704 23.0466L19.1404 24.1881C19.063 24.2346 18.9042 24.3389 18.8431 24.3755C18.6287 24.5024 18.2148 24.6453 17.8463 24.6659C17.4996 24.6845 17.2343 24.6061 17.1046 24.4997L17.0836 24.4791L12.5453 19.5583L12.4605 19.454L11.3571 18.9145V14.6162C12.6532 14.5332 13.7294 14.2813 14.4955 13.9936C15.4021 13.6534 16.0495 13.373 16.1282 13.3704L17.0402 13.3498H17.0409Z" fill="#FDED5E" stroke="#FDED5E" stroke-width="0.2"/>
<path d="M38.3491 19C38.3491 29.2269 29.878 37.5342 19.4074 37.5342C8.93688 37.5342 0.465778 29.2269 0.465778 19C0.465778 8.7731 8.93688 0.465778 19.4074 0.465778C29.878 0.465778 38.3491 8.7731 38.3491 19Z" stroke="#FDED5E" stroke-width="0.931557"/>
</svg>
