<svg width="39" height="38" viewBox="0 0 39 38" fill="none" xmlns="http://www.w3.org/2000/svg">
<path d="M26.1578 15.3035C26.3845 14.965 26.4674 14.5503 26.3884 14.1506C26.3093 13.751 26.0747 13.3991 25.7362 13.1724L21.4819 10.3234C21.1434 10.0968 20.7287 10.0138 20.3291 10.0929C19.9294 10.172 19.5775 10.4066 19.3509 10.7451L11.9435 21.8064C11.7168 22.1449 11.6339 22.5595 11.7129 22.9592C11.792 23.3588 12.0266 23.7107 12.3651 23.9374L16.6194 26.7864C16.9579 27.0131 17.3726 27.096 17.7722 27.0169C18.1719 26.9378 18.5237 26.7033 18.7504 26.3648L26.1578 15.3035ZM14.7864 19.4015L16.9135 20.826C17.0264 20.9016 17.1646 20.9292 17.2978 20.9029C17.431 20.8765 17.5483 20.7983 17.6239 20.6855C17.6994 20.5727 17.7271 20.4344 17.7007 20.3012C17.6744 20.168 17.5962 20.0507 17.4833 19.9752L15.3562 18.5507L16.2131 17.2709L17.4894 18.1256C17.6023 18.2012 17.7405 18.2288 17.8737 18.2025C18.0069 18.1761 18.1242 18.0979 18.1998 17.9851C18.2753 17.8723 18.303 17.7341 18.2766 17.6008C18.2503 17.4676 18.1721 17.3503 18.0592 17.2748L16.7829 16.4201L17.6376 15.1438L19.7648 16.5683C19.8776 16.6438 20.0159 16.6715 20.1491 16.6451C20.2823 16.6188 20.3996 16.5406 20.4751 16.4277C20.5507 16.3149 20.5784 16.1767 20.552 16.0435C20.5256 15.9102 20.4474 15.793 20.3346 15.7174L18.2074 14.2929L19.0621 13.0166L20.3384 13.8713C20.4513 13.9469 20.5895 13.9745 20.7227 13.9481C20.8559 13.9218 20.9732 13.8436 21.0488 13.7308C21.1243 13.6179 21.152 13.4797 21.1256 13.3465C21.0993 13.2133 21.0211 13.096 20.9082 13.0204L19.6319 12.1657L20.2017 11.3149C20.2773 11.202 20.3946 11.1238 20.5278 11.0975C20.661 11.0711 20.7992 11.0988 20.9121 11.1743L25.1664 14.0233C25.2793 14.0989 25.3575 14.2162 25.3838 14.3494C25.4102 14.4826 25.3825 14.6208 25.307 14.7337L17.8996 25.795C17.824 25.9078 17.7067 25.986 17.5735 26.0124C17.4403 26.0387 17.3021 26.0111 17.1892 25.9355L12.9349 23.0865C12.822 23.0109 12.7438 22.8937 12.7175 22.7604C12.6911 22.6272 12.7188 22.489 12.7943 22.3762L13.3641 21.5253L14.6404 22.38C14.7533 22.4556 14.8915 22.4832 15.0247 22.4568C15.1579 22.4305 15.2752 22.3523 15.3508 22.2395C15.4263 22.1266 15.454 21.9884 15.4276 21.8552C15.4013 21.722 15.3231 21.6047 15.2102 21.5291L13.9339 20.6744L14.7864 19.4015Z" fill="#73D0FF"/>
<path d="M38.3491 19C38.3491 29.2269 29.878 37.5342 19.4074 37.5342C8.93688 37.5342 0.465778 29.2269 0.465778 19C0.465778 8.7731 8.93688 0.465778 19.4074 0.465778C29.878 0.465778 38.3491 8.7731 38.3491 19Z" stroke="#73D0FF" stroke-width="0.931557"/>
</svg>
