<svg width="39" height="38" viewBox="0 0 39 38" fill="none" xmlns="http://www.w3.org/2000/svg">
<path d="M24.9122 9.40489H26.8147V11.2931C26.8126 13.2428 26.0317 15.1123 24.6431 16.4914C23.2544 17.8704 21.3713 18.6463 19.407 18.6484H18.719H18.5573V18.8102V25.0028V25.1494L18.7033 25.1637C19.689 25.2604 20.6409 25.5728 21.4905 26.0782C22.2934 26.5558 22.986 27.1947 23.5246 27.9531L22.6507 28.5346C22.1974 27.9006 21.6164 27.3664 20.944 26.9661C20.2253 26.5382 19.4201 26.274 18.5864 26.1924C17.7527 26.1109 16.9111 26.2139 16.1223 26.4942C15.384 26.7565 14.7091 27.1679 14.1399 27.7019L13.3959 26.963C14.474 25.9377 15.8692 25.3001 17.3584 25.1555L17.5045 25.1414V24.9946V18.8102V18.6484H17.3428H16.6549C15.4203 18.647 14.2369 18.1594 13.3643 17.2928C12.4917 16.4262 12.001 15.2515 11.9996 14.0265L11.9996 12.1383H13.9022C13.9022 12.1383 13.9022 12.1383 13.9022 12.1383C14.6555 12.1387 15.3973 12.3206 16.0639 12.6685C16.7306 13.0164 17.3022 13.5198 17.7295 14.1353L17.9025 14.3845L18.013 14.102C18.5531 12.7207 19.5006 11.5333 20.7315 10.6952C21.9625 9.85712 23.4196 9.40736 24.9122 9.40489ZM16.6545 17.6052H16.6547H17.3428H17.5045V17.4435L17.5045 16.7601L17.5045 16.7599C17.5036 15.8108 17.1235 14.9011 16.4481 14.2303C15.7726 13.5596 14.8571 13.1825 13.9024 13.1816H13.9022H13.2141H13.0524V13.3433L13.0524 14.0267L13.0524 14.0269C13.0535 14.9759 13.4337 15.8855 14.1091 16.5563C14.7845 17.227 15.6999 17.6041 16.6545 17.6052ZM25.7619 11.2934V11.2932V10.6099V10.4482H25.6002H24.9121L24.9119 10.4482C23.2275 10.45 21.6124 11.1153 20.421 12.2985C19.2296 13.4817 18.5592 15.0861 18.5573 16.7599V16.7601V17.4435V17.6052H18.719H19.4072H19.4073C21.0918 17.6033 22.7069 16.938 23.8983 15.7549C25.0897 14.5717 25.7601 12.9672 25.7619 11.2934Z" fill="#A0FF5F" stroke="#A0FF5F" stroke-width="0.323457"/>
<path d="M38.3491 19C38.3491 29.2269 29.878 37.5342 19.4074 37.5342C8.93688 37.5342 0.465778 29.2269 0.465778 19C0.465778 8.7731 8.93688 0.465778 19.4074 0.465778C29.878 0.465778 38.3491 8.7731 38.3491 19Z" stroke="#A0FF5F" stroke-width="0.931557"/>
</svg>
