<svg width="39" height="38" viewBox="0 0 39 38" fill="none" xmlns="http://www.w3.org/2000/svg">
<mask id="path-1-outside-1_870_50270" maskUnits="userSpaceOnUse" x="8" y="9.30273" width="22" height="20" fill="black">
<rect fill="white" x="8" y="9.30273" width="22" height="20"/>
<path d="M29.6293 19.586C29.6293 18.6694 29.359 17.7732 28.8527 17.0105C28.3463 16.2478 27.6265 15.6527 26.7838 15.3002V14.2287C26.7832 13.3325 26.4775 12.4634 25.9173 11.7657C25.3572 11.068 24.5763 10.5835 23.7042 10.3928C22.8322 10.202 21.9214 10.3164 21.1229 10.7169C20.3245 11.1174 19.6864 11.78 19.3146 12.5947C18.9428 11.78 18.3048 11.1174 17.5063 10.7169C16.7079 10.3164 15.7971 10.202 14.925 10.3928C14.053 10.5835 13.2721 11.068 12.7119 11.7657C12.1518 12.4634 11.846 13.3325 11.8454 14.2287V15.3002C11.0028 15.6527 10.2829 16.2478 9.77657 17.0105C9.27021 17.7732 9 18.6694 9 19.586C9 20.5026 9.27021 21.3988 9.77657 22.1615C10.2829 22.9242 11.0028 23.5193 11.8454 23.8718V24.229C11.846 25.1252 12.1518 25.9943 12.7119 26.692C13.2721 27.3897 14.053 27.8742 14.925 28.0649C15.7971 28.2557 16.7079 28.1413 17.5063 27.7408C18.3048 27.3403 18.9428 26.6777 19.3146 25.863C19.6864 26.6777 20.3245 27.3403 21.1229 27.7408C21.9214 28.1413 22.8322 28.2557 23.7042 28.0649C24.5763 27.8742 25.3572 27.3897 25.9173 26.692C26.4775 25.9943 26.7832 25.1252 26.7838 24.229V23.8718C27.6258 23.5183 28.345 22.9229 28.8512 22.1605C29.3574 21.398 29.6281 20.5024 29.6293 19.586ZM15.7579 27.4434C14.9089 27.4434 14.0947 27.1047 13.4943 26.5019C12.894 25.8991 12.5568 25.0815 12.5568 24.229V24.104C12.9066 24.1862 13.2645 24.2281 13.6238 24.229H14.3352C14.4295 24.229 14.52 24.1914 14.5867 24.1244C14.6534 24.0574 14.6908 23.9666 14.6908 23.8718C14.6908 23.7771 14.6534 23.6863 14.5867 23.6193C14.52 23.5523 14.4295 23.5147 14.3352 23.5147H13.6238C12.6999 23.5164 11.8052 23.1897 11.0981 22.5925C10.3911 21.9952 9.91737 21.166 9.76081 20.2517C9.60426 19.3374 9.775 18.3969 10.2428 17.5969C10.7106 16.7968 11.4453 16.1888 12.3167 15.8805C12.3863 15.8552 12.4465 15.8091 12.4894 15.7485C12.5323 15.6879 12.5558 15.6156 12.5568 15.5413V14.2287C12.5568 13.3762 12.894 12.5586 13.4943 11.9558C14.0947 11.353 14.9089 11.0143 15.7579 11.0143C16.6068 11.0143 17.4211 11.353 18.0214 11.9558C18.6217 12.5586 18.9589 13.3762 18.959 14.2287V21.97C18.5979 21.4542 18.1186 21.0332 17.5615 20.7426C17.0043 20.452 16.3857 20.3003 15.7579 20.3003C15.6635 20.3003 15.5731 20.3379 15.5064 20.4049C15.4397 20.4719 15.4022 20.5627 15.4022 20.6575C15.4022 20.7522 15.4397 20.843 15.5064 20.91C15.5731 20.977 15.6635 21.0146 15.7579 21.0146C16.6068 21.0146 17.4211 21.3533 18.0214 21.9561C18.6217 22.5589 18.9589 23.3765 18.959 24.229C18.9589 25.0815 18.6217 25.8991 18.0214 26.5019C17.4211 27.1047 16.6068 27.4434 15.7579 27.4434ZM25.0055 23.5147H24.2941C24.1998 23.5147 24.1093 23.5523 24.0426 23.6193C23.9759 23.6863 23.9384 23.7771 23.9384 23.8718C23.9384 23.9666 23.9759 24.0574 24.0426 24.1244C24.1093 24.1914 24.1998 24.229 24.2941 24.229H25.0055C25.3647 24.2281 25.7227 24.1862 26.0725 24.104V24.229C26.0725 24.8647 25.8847 25.4862 25.533 26.0148C25.1813 26.5434 24.6813 26.9554 24.0964 27.1987C23.5115 27.442 22.8678 27.5056 22.2469 27.3816C21.6259 27.2576 21.0556 26.9514 20.6079 26.5019C20.1602 26.0524 19.8553 25.4796 19.7318 24.8561C19.6083 24.2326 19.6717 23.5863 19.914 22.9989C20.1563 22.4116 20.5665 21.9095 21.093 21.5563C21.6194 21.2031 22.2383 21.0146 22.8714 21.0146C22.9657 21.0146 23.0562 20.977 23.1229 20.91C23.1896 20.843 23.2271 20.7522 23.2271 20.6575C23.2271 20.5627 23.1896 20.4719 23.1229 20.4049C23.0562 20.3379 22.9657 20.3003 22.8714 20.3003C22.2436 20.3003 21.6249 20.452 21.0678 20.7426C20.5106 21.0332 20.0313 21.4542 19.6703 21.97V14.2287C19.6703 13.3762 20.0076 12.5586 20.6079 11.9558C21.2082 11.353 22.0224 11.0143 22.8714 11.0143C23.7204 11.0143 24.5346 11.353 25.1349 11.9558C25.7352 12.5586 26.0725 13.3762 26.0725 14.2287V15.5413C26.0735 15.6156 26.0969 15.6879 26.1398 15.7485C26.1827 15.8091 26.243 15.8552 26.3126 15.8805C27.184 16.1888 27.9187 16.7968 28.3865 17.5969C28.8542 18.3969 29.025 19.3374 28.8684 20.2517C28.7119 21.166 28.2381 21.9952 27.5311 22.5925C26.8241 23.1897 25.9294 23.5164 25.0055 23.5147ZM16.1135 16.0145C16.1112 16.7715 15.8107 17.4969 15.2775 18.0322C14.7444 18.5676 14.0221 18.8693 13.2681 18.8717C13.1738 18.8717 13.0833 18.8341 13.0166 18.7671C12.9499 18.7001 12.9124 18.6093 12.9124 18.5145C12.9124 18.4198 12.9499 18.329 13.0166 18.262C13.0833 18.195 13.1738 18.1574 13.2681 18.1574C13.8334 18.155 14.3748 17.9285 14.7745 17.5272C15.1743 17.1258 15.3998 16.5821 15.4022 16.0145V15.3002C15.4022 15.2055 15.4397 15.1146 15.5064 15.0476C15.5731 14.9806 15.6635 14.943 15.7579 14.943C15.8522 14.943 15.9427 14.9806 16.0094 15.0476C16.0761 15.1146 16.1135 15.2055 16.1135 15.3002V16.0145ZM25.7168 18.5145C25.7168 18.6093 25.6793 18.7001 25.6126 18.7671C25.5459 18.8341 25.4555 18.8717 25.3611 18.8717C24.6072 18.8693 23.8848 18.5676 23.3517 18.0322C22.8186 17.4969 22.5181 16.7715 22.5157 16.0145V15.3002C22.5157 15.2055 22.5532 15.1146 22.6199 15.0476C22.6866 14.9806 22.7771 14.943 22.8714 14.943C22.9657 14.943 23.0562 14.9806 23.1229 15.0476C23.1896 15.1146 23.2271 15.2055 23.2271 15.3002V16.0145C23.2294 16.5821 23.455 17.1258 23.8547 17.5272C24.2544 17.9285 24.7959 18.155 25.3611 18.1574C25.4555 18.1574 25.5459 18.195 25.6126 18.262C25.6793 18.329 25.7168 18.4198 25.7168 18.5145Z"/>
</mask>
<path d="M29.6293 19.586C29.6293 18.6694 29.359 17.7732 28.8527 17.0105C28.3463 16.2478 27.6265 15.6527 26.7838 15.3002V14.2287C26.7832 13.3325 26.4775 12.4634 25.9173 11.7657C25.3572 11.068 24.5763 10.5835 23.7042 10.3928C22.8322 10.202 21.9214 10.3164 21.1229 10.7169C20.3245 11.1174 19.6864 11.78 19.3146 12.5947C18.9428 11.78 18.3048 11.1174 17.5063 10.7169C16.7079 10.3164 15.7971 10.202 14.925 10.3928C14.053 10.5835 13.2721 11.068 12.7119 11.7657C12.1518 12.4634 11.846 13.3325 11.8454 14.2287V15.3002C11.0028 15.6527 10.2829 16.2478 9.77657 17.0105C9.27021 17.7732 9 18.6694 9 19.586C9 20.5026 9.27021 21.3988 9.77657 22.1615C10.2829 22.9242 11.0028 23.5193 11.8454 23.8718V24.229C11.846 25.1252 12.1518 25.9943 12.7119 26.692C13.2721 27.3897 14.053 27.8742 14.925 28.0649C15.7971 28.2557 16.7079 28.1413 17.5063 27.7408C18.3048 27.3403 18.9428 26.6777 19.3146 25.863C19.6864 26.6777 20.3245 27.3403 21.1229 27.7408C21.9214 28.1413 22.8322 28.2557 23.7042 28.0649C24.5763 27.8742 25.3572 27.3897 25.9173 26.692C26.4775 25.9943 26.7832 25.1252 26.7838 24.229V23.8718C27.6258 23.5183 28.345 22.9229 28.8512 22.1605C29.3574 21.398 29.6281 20.5024 29.6293 19.586ZM15.7579 27.4434C14.9089 27.4434 14.0947 27.1047 13.4943 26.5019C12.894 25.8991 12.5568 25.0815 12.5568 24.229V24.104C12.9066 24.1862 13.2645 24.2281 13.6238 24.229H14.3352C14.4295 24.229 14.52 24.1914 14.5867 24.1244C14.6534 24.0574 14.6908 23.9666 14.6908 23.8718C14.6908 23.7771 14.6534 23.6863 14.5867 23.6193C14.52 23.5523 14.4295 23.5147 14.3352 23.5147H13.6238C12.6999 23.5164 11.8052 23.1897 11.0981 22.5925C10.3911 21.9952 9.91737 21.166 9.76081 20.2517C9.60426 19.3374 9.775 18.3969 10.2428 17.5969C10.7106 16.7968 11.4453 16.1888 12.3167 15.8805C12.3863 15.8552 12.4465 15.8091 12.4894 15.7485C12.5323 15.6879 12.5558 15.6156 12.5568 15.5413V14.2287C12.5568 13.3762 12.894 12.5586 13.4943 11.9558C14.0947 11.353 14.9089 11.0143 15.7579 11.0143C16.6068 11.0143 17.4211 11.353 18.0214 11.9558C18.6217 12.5586 18.9589 13.3762 18.959 14.2287V21.97C18.5979 21.4542 18.1186 21.0332 17.5615 20.7426C17.0043 20.452 16.3857 20.3003 15.7579 20.3003C15.6635 20.3003 15.5731 20.3379 15.5064 20.4049C15.4397 20.4719 15.4022 20.5627 15.4022 20.6575C15.4022 20.7522 15.4397 20.843 15.5064 20.91C15.5731 20.977 15.6635 21.0146 15.7579 21.0146C16.6068 21.0146 17.4211 21.3533 18.0214 21.9561C18.6217 22.5589 18.9589 23.3765 18.959 24.229C18.9589 25.0815 18.6217 25.8991 18.0214 26.5019C17.4211 27.1047 16.6068 27.4434 15.7579 27.4434ZM25.0055 23.5147H24.2941C24.1998 23.5147 24.1093 23.5523 24.0426 23.6193C23.9759 23.6863 23.9384 23.7771 23.9384 23.8718C23.9384 23.9666 23.9759 24.0574 24.0426 24.1244C24.1093 24.1914 24.1998 24.229 24.2941 24.229H25.0055C25.3647 24.2281 25.7227 24.1862 26.0725 24.104V24.229C26.0725 24.8647 25.8847 25.4862 25.533 26.0148C25.1813 26.5434 24.6813 26.9554 24.0964 27.1987C23.5115 27.442 22.8678 27.5056 22.2469 27.3816C21.6259 27.2576 21.0556 26.9514 20.6079 26.5019C20.1602 26.0524 19.8553 25.4796 19.7318 24.8561C19.6083 24.2326 19.6717 23.5863 19.914 22.9989C20.1563 22.4116 20.5665 21.9095 21.093 21.5563C21.6194 21.2031 22.2383 21.0146 22.8714 21.0146C22.9657 21.0146 23.0562 20.977 23.1229 20.91C23.1896 20.843 23.2271 20.7522 23.2271 20.6575C23.2271 20.5627 23.1896 20.4719 23.1229 20.4049C23.0562 20.3379 22.9657 20.3003 22.8714 20.3003C22.2436 20.3003 21.6249 20.452 21.0678 20.7426C20.5106 21.0332 20.0313 21.4542 19.6703 21.97V14.2287C19.6703 13.3762 20.0076 12.5586 20.6079 11.9558C21.2082 11.353 22.0224 11.0143 22.8714 11.0143C23.7204 11.0143 24.5346 11.353 25.1349 11.9558C25.7352 12.5586 26.0725 13.3762 26.0725 14.2287V15.5413C26.0735 15.6156 26.0969 15.6879 26.1398 15.7485C26.1827 15.8091 26.243 15.8552 26.3126 15.8805C27.184 16.1888 27.9187 16.7968 28.3865 17.5969C28.8542 18.3969 29.025 19.3374 28.8684 20.2517C28.7119 21.166 28.2381 21.9952 27.5311 22.5925C26.8241 23.1897 25.9294 23.5164 25.0055 23.5147ZM16.1135 16.0145C16.1112 16.7715 15.8107 17.4969 15.2775 18.0322C14.7444 18.5676 14.0221 18.8693 13.2681 18.8717C13.1738 18.8717 13.0833 18.8341 13.0166 18.7671C12.9499 18.7001 12.9124 18.6093 12.9124 18.5145C12.9124 18.4198 12.9499 18.329 13.0166 18.262C13.0833 18.195 13.1738 18.1574 13.2681 18.1574C13.8334 18.155 14.3748 17.9285 14.7745 17.5272C15.1743 17.1258 15.3998 16.5821 15.4022 16.0145V15.3002C15.4022 15.2055 15.4397 15.1146 15.5064 15.0476C15.5731 14.9806 15.6635 14.943 15.7579 14.943C15.8522 14.943 15.9427 14.9806 16.0094 15.0476C16.0761 15.1146 16.1135 15.2055 16.1135 15.3002V16.0145ZM25.7168 18.5145C25.7168 18.6093 25.6793 18.7001 25.6126 18.7671C25.5459 18.8341 25.4555 18.8717 25.3611 18.8717C24.6072 18.8693 23.8848 18.5676 23.3517 18.0322C22.8186 17.4969 22.5181 16.7715 22.5157 16.0145V15.3002C22.5157 15.2055 22.5532 15.1146 22.6199 15.0476C22.6866 14.9806 22.7771 14.943 22.8714 14.943C22.9657 14.943 23.0562 14.9806 23.1229 15.0476C23.1896 15.1146 23.2271 15.2055 23.2271 15.3002V16.0145C23.2294 16.5821 23.455 17.1258 23.8547 17.5272C24.2544 17.9285 24.7959 18.155 25.3611 18.1574C25.4555 18.1574 25.5459 18.195 25.6126 18.262C25.6793 18.329 25.7168 18.4198 25.7168 18.5145Z" fill="#FF8E6A"/>
<path d="M29.6293 19.586C29.6293 18.6694 29.359 17.7732 28.8527 17.0105C28.3463 16.2478 27.6265 15.6527 26.7838 15.3002V14.2287C26.7832 13.3325 26.4775 12.4634 25.9173 11.7657C25.3572 11.068 24.5763 10.5835 23.7042 10.3928C22.8322 10.202 21.9214 10.3164 21.1229 10.7169C20.3245 11.1174 19.6864 11.78 19.3146 12.5947C18.9428 11.78 18.3048 11.1174 17.5063 10.7169C16.7079 10.3164 15.7971 10.202 14.925 10.3928C14.053 10.5835 13.2721 11.068 12.7119 11.7657C12.1518 12.4634 11.846 13.3325 11.8454 14.2287V15.3002C11.0028 15.6527 10.2829 16.2478 9.77657 17.0105C9.27021 17.7732 9 18.6694 9 19.586C9 20.5026 9.27021 21.3988 9.77657 22.1615C10.2829 22.9242 11.0028 23.5193 11.8454 23.8718V24.229C11.846 25.1252 12.1518 25.9943 12.7119 26.692C13.2721 27.3897 14.053 27.8742 14.925 28.0649C15.7971 28.2557 16.7079 28.1413 17.5063 27.7408C18.3048 27.3403 18.9428 26.6777 19.3146 25.863C19.6864 26.6777 20.3245 27.3403 21.1229 27.7408C21.9214 28.1413 22.8322 28.2557 23.7042 28.0649C24.5763 27.8742 25.3572 27.3897 25.9173 26.692C26.4775 25.9943 26.7832 25.1252 26.7838 24.229V23.8718C27.6258 23.5183 28.345 22.9229 28.8512 22.1605C29.3574 21.398 29.6281 20.5024 29.6293 19.586ZM15.7579 27.4434C14.9089 27.4434 14.0947 27.1047 13.4943 26.5019C12.894 25.8991 12.5568 25.0815 12.5568 24.229V24.104C12.9066 24.1862 13.2645 24.2281 13.6238 24.229H14.3352C14.4295 24.229 14.52 24.1914 14.5867 24.1244C14.6534 24.0574 14.6908 23.9666 14.6908 23.8718C14.6908 23.7771 14.6534 23.6863 14.5867 23.6193C14.52 23.5523 14.4295 23.5147 14.3352 23.5147H13.6238C12.6999 23.5164 11.8052 23.1897 11.0981 22.5925C10.3911 21.9952 9.91737 21.166 9.76081 20.2517C9.60426 19.3374 9.775 18.3969 10.2428 17.5969C10.7106 16.7968 11.4453 16.1888 12.3167 15.8805C12.3863 15.8552 12.4465 15.8091 12.4894 15.7485C12.5323 15.6879 12.5558 15.6156 12.5568 15.5413V14.2287C12.5568 13.3762 12.894 12.5586 13.4943 11.9558C14.0947 11.353 14.9089 11.0143 15.7579 11.0143C16.6068 11.0143 17.4211 11.353 18.0214 11.9558C18.6217 12.5586 18.9589 13.3762 18.959 14.2287V21.97C18.5979 21.4542 18.1186 21.0332 17.5615 20.7426C17.0043 20.452 16.3857 20.3003 15.7579 20.3003C15.6635 20.3003 15.5731 20.3379 15.5064 20.4049C15.4397 20.4719 15.4022 20.5627 15.4022 20.6575C15.4022 20.7522 15.4397 20.843 15.5064 20.91C15.5731 20.977 15.6635 21.0146 15.7579 21.0146C16.6068 21.0146 17.4211 21.3533 18.0214 21.9561C18.6217 22.5589 18.9589 23.3765 18.959 24.229C18.9589 25.0815 18.6217 25.8991 18.0214 26.5019C17.4211 27.1047 16.6068 27.4434 15.7579 27.4434ZM25.0055 23.5147H24.2941C24.1998 23.5147 24.1093 23.5523 24.0426 23.6193C23.9759 23.6863 23.9384 23.7771 23.9384 23.8718C23.9384 23.9666 23.9759 24.0574 24.0426 24.1244C24.1093 24.1914 24.1998 24.229 24.2941 24.229H25.0055C25.3647 24.2281 25.7227 24.1862 26.0725 24.104V24.229C26.0725 24.8647 25.8847 25.4862 25.533 26.0148C25.1813 26.5434 24.6813 26.9554 24.0964 27.1987C23.5115 27.442 22.8678 27.5056 22.2469 27.3816C21.6259 27.2576 21.0556 26.9514 20.6079 26.5019C20.1602 26.0524 19.8553 25.4796 19.7318 24.8561C19.6083 24.2326 19.6717 23.5863 19.914 22.9989C20.1563 22.4116 20.5665 21.9095 21.093 21.5563C21.6194 21.2031 22.2383 21.0146 22.8714 21.0146C22.9657 21.0146 23.0562 20.977 23.1229 20.91C23.1896 20.843 23.2271 20.7522 23.2271 20.6575C23.2271 20.5627 23.1896 20.4719 23.1229 20.4049C23.0562 20.3379 22.9657 20.3003 22.8714 20.3003C22.2436 20.3003 21.6249 20.452 21.0678 20.7426C20.5106 21.0332 20.0313 21.4542 19.6703 21.97V14.2287C19.6703 13.3762 20.0076 12.5586 20.6079 11.9558C21.2082 11.353 22.0224 11.0143 22.8714 11.0143C23.7204 11.0143 24.5346 11.353 25.1349 11.9558C25.7352 12.5586 26.0725 13.3762 26.0725 14.2287V15.5413C26.0735 15.6156 26.0969 15.6879 26.1398 15.7485C26.1827 15.8091 26.243 15.8552 26.3126 15.8805C27.184 16.1888 27.9187 16.7968 28.3865 17.5969C28.8542 18.3969 29.025 19.3374 28.8684 20.2517C28.7119 21.166 28.2381 21.9952 27.5311 22.5925C26.8241 23.1897 25.9294 23.5164 25.0055 23.5147ZM16.1135 16.0145C16.1112 16.7715 15.8107 17.4969 15.2775 18.0322C14.7444 18.5676 14.0221 18.8693 13.2681 18.8717C13.1738 18.8717 13.0833 18.8341 13.0166 18.7671C12.9499 18.7001 12.9124 18.6093 12.9124 18.5145C12.9124 18.4198 12.9499 18.329 13.0166 18.262C13.0833 18.195 13.1738 18.1574 13.2681 18.1574C13.8334 18.155 14.3748 17.9285 14.7745 17.5272C15.1743 17.1258 15.3998 16.5821 15.4022 16.0145V15.3002C15.4022 15.2055 15.4397 15.1146 15.5064 15.0476C15.5731 14.9806 15.6635 14.943 15.7579 14.943C15.8522 14.943 15.9427 14.9806 16.0094 15.0476C16.0761 15.1146 16.1135 15.2055 16.1135 15.3002V16.0145ZM25.7168 18.5145C25.7168 18.6093 25.6793 18.7001 25.6126 18.7671C25.5459 18.8341 25.4555 18.8717 25.3611 18.8717C24.6072 18.8693 23.8848 18.5676 23.3517 18.0322C22.8186 17.4969 22.5181 16.7715 22.5157 16.0145V15.3002C22.5157 15.2055 22.5532 15.1146 22.6199 15.0476C22.6866 14.9806 22.7771 14.943 22.8714 14.943C22.9657 14.943 23.0562 14.9806 23.1229 15.0476C23.1896 15.1146 23.2271 15.2055 23.2271 15.3002V16.0145C23.2294 16.5821 23.455 17.1258 23.8547 17.5272C24.2544 17.9285 24.7959 18.155 25.3611 18.1574C25.4555 18.1574 25.5459 18.195 25.6126 18.262C25.6793 18.329 25.7168 18.4198 25.7168 18.5145Z" stroke="#FF8E6A" stroke-width="0.396716" mask="url(#path-1-outside-1_870_50270)"/>
<path d="M38.3491 19C38.3491 29.2269 29.878 37.5342 19.4074 37.5342C8.93688 37.5342 0.465778 29.2269 0.465778 19C0.465778 8.7731 8.93688 0.465778 19.4074 0.465778C29.878 0.465778 38.3491 8.7731 38.3491 19Z" stroke="#FF8E6A" stroke-width="0.931557"/>
</svg>
